# This file uses centimeters as units for non-parametric coordinates.

mtllib skybox.mtl
g default
v -0.500000 -0.500000 0.500000
v 0.500000 -0.500000 0.500000
v -0.500000 -0.500000 -0.500000
v 0.500000 -0.500000 -0.500000
v -0.500000 0.500000 0.500000
v 0.500000 0.500000 0.500000
v -0.500000 0.500000 -0.500000
v 0.500000 0.500000 -0.500000
vt 0.257701 0.041070
vt 0.495632 0.041326
vt 0.257701 0.365068
vt 0.495632 0.365309
vt 0.495632 0.675954
vt 0.495632 0.993369
vt 0.257701 0.675954
vt 0.257701 0.993369
vt 0.749383 0.364095
vt 0.749383 0.675954
vt 0.000517 0.363509
vt 0.000517 0.675954
vt 1.003421 0.362168
vt 1.003421 0.675954
vn 0.577350 0.577350 0.577350
vn 0.577350 0.577350 -0.577350
vn -0.577350 0.577350 0.577350
vn -0.577350 0.577350 -0.577350
vn -0.577350 0.577350 0.577350
vn 0.577350 0.577350 -0.577350
vn -0.577350 -0.577350 -0.577350
vn 0.577350 -0.577350 -0.577350
vn -0.577350 -0.577350 0.577350
vn 0.577350 -0.577350 0.577350
vn -0.577350 -0.577350 0.577350
vn 0.577350 -0.577350 -0.577350
vn -0.577350 0.577350 -0.577350
vn 0.577350 0.577350 -0.577350
vn -0.577350 -0.577350 -0.577350
vn 0.577350 -0.577350 -0.577350
vn -0.577350 -0.577350 -0.577350
vn 0.577350 0.577350 -0.577350
vn -0.577350 0.577350 0.577350
vn -0.577350 0.577350 -0.577350
vn -0.577350 -0.577350 0.577350
vn -0.577350 -0.577350 -0.577350
vn -0.577350 -0.577350 0.577350
vn -0.577350 0.577350 -0.577350
vn 0.577350 0.577350 0.577350
vn -0.577350 0.577350 0.577350
vn 0.577350 -0.577350 0.577350
vn -0.577350 -0.577350 0.577350
vn 0.577350 -0.577350 0.577350
vn -0.577350 0.577350 0.577350
vn 0.577350 0.577350 -0.577350
vn 0.577350 0.577350 0.577350
vn 0.577350 -0.577350 -0.577350
vn 0.577350 -0.577350 0.577350
vn 0.577350 -0.577350 -0.577350
vn 0.577350 0.577350 0.577350
s off
g skybox:Box001
usemtl initialShadingGroup
f 3/1/1 1/2/2 4/3/3
f 2/4/4 4/3/5 1/2/6
f 6/5/7 5/6/8 8/7/9
f 7/8/10 8/7/11 5/6/12
f 2/4/13 1/9/14 6/5/15
f 5/10/16 6/5/17 1/9/18
f 4/3/19 2/4/20 8/7/21
f 6/5/22 8/7/23 2/4/24
f 3/11/25 4/3/26 7/12/27
f 8/7/28 7/12/29 4/3/30
f 1/9/31 3/13/32 5/10/33
f 7/14/34 5/10/35 3/13/36
