# 3ds Max Wavefront OBJ Exporter v0.97b - (c)2007 guruware
# File Created: 03.02.2017 08:54:19

mtllib Crate03.mtl

#
# object Crate03
#

v  0.1679 0.7950 -0.1750
v  0.1679 0.0050 -0.1750
v  -0.1671 0.0050 -0.1750
v  -0.1671 0.7950 -0.1750
v  0.1679 0.7950 0.1750
v  -0.1671 0.7950 0.1750
v  -0.1671 0.0050 0.1750
v  0.1679 0.0050 0.1750
v  0.1679 0.0000 0.1700
v  -0.1671 0.0000 0.1700
v  -0.1671 0.0000 -0.1700
v  0.1679 0.0000 -0.1700
v  0.1729 0.7950 0.1700
v  0.1729 0.0050 0.1700
v  0.1729 0.0050 -0.1700
v  0.1729 0.7950 -0.1700
v  -0.1671 0.8000 0.1700
v  0.1679 0.8000 0.1700
v  0.1679 0.8000 -0.1700
v  -0.1671 0.8000 -0.1700
v  -0.1721 0.0050 0.1700
v  -0.1721 0.7950 0.1700
v  -0.1721 0.7950 -0.1700
v  -0.1721 0.0050 -0.1700
# 24 vertices

vn 0.0000 0.0000 -1.0000
vn 0.0000 -0.0000 1.0000
vn 0.0000 -1.0000 -0.0000
vn 1.0000 0.0000 -0.0000
vn 0.0000 1.0000 0.0000
vn -1.0000 0.0000 -0.0000
vn -0.5774 -0.5774 -0.5773
vn 0.5774 -0.5774 -0.5773
vn -0.5774 0.5774 -0.5773
vn 0.5774 0.5774 -0.5773
vn -0.5774 -0.5774 0.5774
vn 0.5774 -0.5774 0.5774
vn -0.5774 0.5774 0.5774
vn 0.5774 0.5774 0.5774
vn -0.7071 0.0000 -0.7071
vn 0.0000 0.7071 -0.7071
vn 0.7071 0.0000 -0.7071
vn 0.0000 -0.7071 -0.7071
vn 0.0000 -0.7071 0.7071
vn 0.7071 -0.0000 0.7071
vn 0.0000 0.7071 0.7071
vn -0.7071 -0.0000 0.7071
vn 0.7071 -0.7071 -0.0000
vn -0.7071 -0.7071 -0.0000
vn 0.7071 0.7071 0.0000
vn -0.7071 0.7071 0.0000
# 26 vertex normals

vt 0.7442 0.2325 0.0000
vt 0.7443 0.7676 0.0000
vt 0.5029 0.7676 0.0000
vt 0.5027 0.2325 0.0000
vt 0.0056 0.2326 0.0000
vt 0.2471 0.2325 0.0000
vt 0.2472 0.7676 0.0000
vt 0.0057 0.7677 0.0000
vt 0.9949 0.7723 0.0000
vt 0.9950 0.9992 0.0000
vt 0.7499 0.9993 0.0000
vt 0.7499 0.7724 0.0000
vt 0.9948 0.2325 0.0000
vt 0.9949 0.7675 0.0000
vt 0.7499 0.7676 0.0000
vt 0.7498 0.2325 0.0000
vt 0.9948 0.0008 0.0000
vt 0.9948 0.2277 0.0000
vt 0.7498 0.2277 0.0000
vt 0.7497 0.0008 0.0000
vt 0.2524 0.7676 0.0000
vt 0.2523 0.2326 0.0000
vt 0.4973 0.2325 0.0000
vt 0.4974 0.7676 0.0000
vt 0.5002 0.7723 0.0000
vt 0.7472 0.7723 0.0000
vt 0.5001 0.2277 0.0000
vt 0.7472 0.2277 0.0000
vt 0.2498 0.7724 0.0000
vt 0.9994 0.7699 0.0000
vt 0.2498 0.2277 0.0000
vt 0.9992 0.2301 0.0000
vt 0.5027 0.2277 0.0000
vt 0.7442 0.2277 0.0000
vt 0.7443 0.7724 0.0000
vt 0.5029 0.7724 0.0000
vt 0.2472 0.7724 0.0000
vt 0.0058 0.7724 0.0000
vt 0.0007 0.7676 0.0000
vt 0.0006 0.2326 0.0000
vt 0.0056 0.2278 0.0000
vt 0.2471 0.2277 0.0000
vt 0.2524 0.7724 0.0000
vt 0.4974 0.7724 0.0000
vt 0.4973 0.2277 0.0000
vt 0.2523 0.2278 0.0000
# 46 texture coords

g Crate03
usemtl 01___Default
s 2
f 1/1/1 2/2/1 3/3/1 
f 3/3/1 4/4/1 1/1/1 
s 4
f 5/5/2 6/6/2 7/7/2 
f 7/7/2 8/8/2 5/5/2 
s 8
f 9/9/3 10/10/3 11/11/3 
f 11/11/3 12/12/3 9/9/3 
s 16
f 13/13/4 14/14/4 15/15/4 
f 15/15/4 16/16/4 13/13/4 
s 32
f 17/17/5 18/18/5 19/19/5 
f 19/19/5 20/20/5 17/17/5 
s 64
f 21/21/6 22/22/6 23/23/6 
f 23/23/6 24/24/6 21/21/6 
s off
f 11/25/7 24/24/7 3/3/7 
f 2/2/8 15/15/8 12/26/8 
f 23/23/9 20/27/9 4/4/9 
f 1/1/10 19/28/10 16/16/10 
f 10/29/11 7/7/11 21/21/11 
f 14/14/12 8/30/12 9/9/12 
f 22/22/13 6/6/13 17/31/13 
f 18/18/14 5/32/14 13/13/14 
f 3/3/15 24/24/15 23/23/15 
f 23/23/15 4/4/15 3/3/15 
f 4/4/16 20/33/16 19/34/16 
f 19/34/16 1/1/16 4/4/16 
f 1/1/17 16/16/17 15/15/17 
f 15/15/17 2/2/17 1/1/17 
f 2/2/18 12/35/18 11/36/18 
f 11/36/18 3/3/18 2/2/18 
f 7/7/19 10/37/19 9/38/19 
f 9/38/19 8/8/19 7/7/19 
f 8/8/20 14/39/20 13/40/20 
f 13/40/20 5/5/20 8/8/20 
f 5/5/21 18/41/21 17/42/21 
f 17/42/21 6/6/21 5/5/21 
f 6/6/22 22/22/22 21/21/22 
f 21/21/22 7/7/22 6/6/22 
f 12/12/23 15/15/23 14/14/23 
f 14/14/23 9/9/23 12/12/23 
f 10/43/24 21/21/24 24/24/24 
f 24/24/24 11/44/24 10/43/24 
f 16/16/25 19/19/25 18/18/25 
f 18/18/25 13/13/25 16/16/25 
f 20/45/26 23/23/26 22/22/26 
f 22/22/26 17/46/26 20/45/26 
# 44 faces

