# 3ds Max Wavefront OBJ Exporter v0.97b - (c)2007 guruware
# File Created: 03.02.2017 08:46:49

mtllib Ceilinglights02.mtl

#
# object Box001
#

v  -0.5000 0.2922 0.0706
v  -0.5000 0.2922 -0.0794
v  0.5000 0.2922 -0.0794
v  0.5000 0.2922 0.0706
v  -0.5000 0.3672 0.0706
v  0.5000 0.3672 0.0706
v  0.5000 0.3672 -0.0794
v  -0.5000 0.3672 -0.0794
v  0.5000 0.2106 0.1706
v  0.5000 0.2144 0.1706
v  -0.5000 0.2144 0.1706
v  -0.5000 0.2106 0.1706
v  0.5000 0.2961 -0.0794
v  0.5000 0.2961 0.0706
v  -0.5000 0.2106 -0.1794
v  -0.5000 0.2144 -0.1794
v  0.5000 0.2144 -0.1794
v  0.5000 0.2106 -0.1794
v  -0.5000 0.2961 0.0706
v  -0.5000 0.2961 -0.0794
v  0.5000 0.2587 0.1206
v  -0.5000 0.2587 0.1206
v  0.5000 0.2625 0.1206
v  -0.5000 0.2625 0.1206
v  -0.5000 0.2587 -0.1294
v  0.5000 0.2587 -0.1294
v  -0.5000 0.2625 -0.1294
v  0.5000 0.2625 -0.1294
v  0.4998 0.2530 0.0580
v  0.4998 0.2986 0.0579
v  0.4848 0.2986 0.0579
v  0.4848 0.2530 0.0580
v  0.4998 0.2986 0.0181
v  0.4998 0.2530 0.0180
v  0.4848 0.2530 0.0180
v  0.4848 0.2986 0.0181
v  0.4998 0.2389 0.0239
v  0.4848 0.2389 0.0239
v  0.4998 0.2330 0.0380
v  0.4848 0.2330 0.0380
v  0.4998 0.2389 0.0522
v  0.4848 0.2389 0.0522
v  0.4998 0.2530 -0.0168
v  0.4998 0.2986 -0.0169
v  0.4848 0.2986 -0.0169
v  0.4848 0.2530 -0.0168
v  0.4998 0.2986 -0.0567
v  0.4998 0.2530 -0.0568
v  0.4848 0.2530 -0.0568
v  0.4848 0.2986 -0.0567
v  0.4998 0.2389 -0.0509
v  0.4848 0.2389 -0.0509
v  0.4998 0.2330 -0.0368
v  0.4848 0.2330 -0.0368
v  0.4998 0.2389 -0.0226
v  0.4848 0.2389 -0.0226
v  -0.4849 0.2530 -0.0168
v  -0.4849 0.2986 -0.0169
v  -0.4999 0.2986 -0.0169
v  -0.4999 0.2530 -0.0168
v  -0.4849 0.2986 -0.0567
v  -0.4849 0.2530 -0.0568
v  -0.4999 0.2530 -0.0568
v  -0.4999 0.2986 -0.0567
v  -0.4849 0.2389 -0.0509
v  -0.4999 0.2389 -0.0509
v  -0.4849 0.2330 -0.0368
v  -0.4999 0.2330 -0.0368
v  -0.4849 0.2389 -0.0226
v  -0.4999 0.2389 -0.0226
v  -0.4849 0.2530 0.0580
v  -0.4849 0.2986 0.0579
v  -0.4999 0.2986 0.0579
v  -0.4999 0.2530 0.0580
v  -0.4849 0.2986 0.0181
v  -0.4849 0.2530 0.0180
v  -0.4999 0.2530 0.0180
v  -0.4999 0.2986 0.0181
v  -0.4849 0.2389 0.0239
v  -0.4999 0.2389 0.0239
v  -0.4849 0.2330 0.0380
v  -0.4999 0.2330 0.0380
v  -0.4849 0.2389 0.0522
v  -0.4999 0.2389 0.0522
# 84 vertices

vn 0.0000 -1.0000 -0.0000
vn 0.0000 1.0000 -0.0000
vn 0.0000 0.0000 1.0000
vn 1.0000 0.0000 -0.0000
vn 0.0000 0.0000 -1.0000
vn -1.0000 0.0000 -0.0000
vn 0.0000 -0.8301 -0.5576
vn 0.0000 0.8301 0.5576
vn -0.0000 0.8301 0.5576
vn 0.0000 -0.8301 0.5576
vn -0.0000 -0.8301 0.5576
vn 0.0000 0.8301 -0.5576
vn 0.0000 -0.7206 -0.6934
vn -0.0000 0.7206 0.6934
vn 0.0000 0.7206 0.6934
vn -0.0000 -0.7206 0.6934
vn 0.0000 -0.7206 0.6934
vn 0.0000 0.7206 -0.6934
vn -0.0000 -0.1940 0.9810
vn -0.0000 0.0022 1.0000
vn 0.0000 0.0022 -1.0000
vn 0.0000 -0.1940 -0.9810
vn 0.0000 -0.7071 -0.7071
vn 0.0000 -1.0000 0.0000
vn -0.0000 -1.0000 0.0000
vn -0.0000 -0.7071 0.7071
vn -1.0000 -0.0000 -0.0000
# 27 vertex normals

vt 0.0546 0.6807 0.0000
vt 0.0547 0.5835 0.0000
vt 0.7162 0.5843 0.0000
vt 0.7161 0.6815 0.0000
vt 0.0544 0.8948 0.0000
vt 0.7158 0.8956 0.0000
vt 0.7157 0.9928 0.0000
vt 0.0543 0.9920 0.0000
vt 0.7160 0.7639 0.0000
vt 0.7160 0.7669 0.0000
vt 0.0545 0.7661 0.0000
vt 0.0545 0.7631 0.0000
vt 0.7185 0.5849 0.0000
vt 0.7184 0.6808 0.0000
vt 0.0549 0.5014 0.0000
vt 0.0549 0.4985 0.0000
vt 0.7163 0.4992 0.0000
vt 0.7163 0.5021 0.0000
vt 0.0523 0.6800 0.0000
vt 0.0524 0.5842 0.0000
vt 0.0544 0.8487 0.0000
vt 0.7159 0.8495 0.0000
vt 0.7650 0.5850 0.0000
vt 0.7648 0.6809 0.0000
vt 0.0550 0.3694 0.0000
vt 0.7165 0.3702 0.0000
vt 0.7164 0.4163 0.0000
vt 0.0550 0.4155 0.0000
vt 0.0059 0.6800 0.0000
vt 0.0060 0.5841 0.0000
vt 0.7158 0.7189 0.0000
vt 0.0544 0.7181 0.0000
vt 0.7180 0.7190 0.0000
vt 0.0545 0.8097 0.0000
vt 0.7159 0.8104 0.0000
vt 0.0526 0.7182 0.0000
vt 0.0548 0.5445 0.0000
vt 0.7162 0.5452 0.0000
vt 0.0528 0.5460 0.0000
vt 0.7164 0.4553 0.0000
vt 0.0549 0.4545 0.0000
vt 0.7182 0.5468 0.0000
vt 0.7178 0.7638 0.0000
vt 0.0527 0.7630 0.0000
vt 0.0530 0.5012 0.0000
vt 0.7181 0.5020 0.0000
vt 0.1604 0.2114 0.0000
vt 0.1599 0.3102 0.0000
vt 0.1273 0.3101 0.0000
vt 0.1278 0.2113 0.0000
vt 0.1280 0.3096 0.0000
vt 0.1285 0.2108 0.0000
vt 0.1611 0.2109 0.0000
vt 0.1606 0.3097 0.0000
vt 0.1287 0.1776 0.0000
vt 0.1613 0.1778 0.0000
vt 0.1288 0.1445 0.0000
vt 0.1614 0.1446 0.0000
vt 0.1607 0.1451 0.0000
vt 0.1605 0.1783 0.0000
vt 0.1279 0.1781 0.0000
vt 0.1281 0.1450 0.0000
vt 0.0851 0.1673 0.0000
vt 0.1158 0.1801 0.0000
vt 0.0415 0.3094 0.0000
vt 0.0415 0.2105 0.0000
vt 0.0543 0.1799 0.0000
vt 0.0407 0.3099 0.0000
vt 0.0408 0.2110 0.0000
vt 0.0536 0.1804 0.0000
vt 0.0844 0.1678 0.0000
vt 0.1151 0.1806 0.0000
vt 0.1606 0.2116 0.0000
vt 0.1602 0.3104 0.0000
vt 0.1275 0.3103 0.0000
vt 0.1280 0.2114 0.0000
vt 0.1279 0.3103 0.0000
vt 0.1284 0.2115 0.0000
vt 0.1610 0.2116 0.0000
vt 0.1605 0.3104 0.0000
vt 0.1285 0.1783 0.0000
vt 0.1612 0.1785 0.0000
vt 0.1287 0.1452 0.0000
vt 0.1613 0.1453 0.0000
vt 0.1610 0.1453 0.0000
vt 0.1608 0.1784 0.0000
vt 0.1282 0.1783 0.0000
vt 0.1283 0.1451 0.0000
vt 0.0850 0.1680 0.0000
vt 0.1157 0.1808 0.0000
vt 0.0414 0.3101 0.0000
vt 0.0414 0.2113 0.0000
vt 0.0542 0.1807 0.0000
vt 0.0410 0.3100 0.0000
vt 0.0410 0.2112 0.0000
vt 0.0539 0.1806 0.0000
vt 0.0846 0.1680 0.0000
vt 0.1154 0.1808 0.0000
vt 0.1600 0.2113 0.0000
vt 0.1600 0.3105 0.0000
vt 0.1274 0.3105 0.0000
vt 0.1274 0.2113 0.0000
vt 0.1280 0.3100 0.0000
vt 0.1280 0.2108 0.0000
vt 0.1606 0.2108 0.0000
vt 0.1606 0.3100 0.0000
vt 0.1280 0.1776 0.0000
vt 0.1606 0.1776 0.0000
vt 0.1280 0.1443 0.0000
vt 0.1606 0.1443 0.0000
vt 0.1600 0.1448 0.0000
vt 0.1600 0.1781 0.0000
vt 0.1274 0.1781 0.0000
vt 0.1274 0.1448 0.0000
vt 0.0844 0.1674 0.0000
vt 0.1152 0.1801 0.0000
vt 0.0415 0.3102 0.0000
vt 0.0410 0.2110 0.0000
vt 0.0537 0.1802 0.0000
vt 0.0409 0.3106 0.0000
vt 0.0405 0.2115 0.0000
vt 0.0532 0.1807 0.0000
vt 0.0839 0.1679 0.0000
vt 0.1146 0.1806 0.0000
vt 0.1608 0.2120 0.0000
vt 0.1603 0.3108 0.0000
vt 0.1277 0.3106 0.0000
vt 0.1282 0.2118 0.0000
vt 0.1284 0.3098 0.0000
vt 0.1289 0.2110 0.0000
vt 0.1615 0.2111 0.0000
vt 0.1610 0.3099 0.0000
vt 0.1291 0.1778 0.0000
vt 0.1617 0.1780 0.0000
vt 0.1292 0.1446 0.0000
vt 0.1618 0.1448 0.0000
vt 0.1611 0.1457 0.0000
vt 0.1610 0.1788 0.0000
vt 0.1283 0.1787 0.0000
vt 0.1285 0.1455 0.0000
vt 0.0855 0.1675 0.0000
vt 0.1162 0.1803 0.0000
vt 0.0419 0.3095 0.0000
vt 0.0419 0.2107 0.0000
vt 0.0547 0.1801 0.0000
vt 0.0412 0.3104 0.0000
vt 0.0412 0.2116 0.0000
vt 0.0540 0.1810 0.0000
vt 0.0848 0.1684 0.0000
vt 0.1155 0.1812 0.0000
# 150 texture coords

g Box001
usemtl 01___Default
s 2
f 1/1/1 2/2/1 3/3/1 
f 3/3/1 4/4/1 1/1/1 
s 4
f 5/5/2 6/6/2 7/7/2 
f 7/7/2 8/8/2 5/5/2 
s 8
f 9/9/3 10/10/3 11/11/3 
f 11/11/3 12/12/3 9/9/3 
s 16
f 3/3/4 13/13/4 14/14/4 
f 14/14/4 4/4/4 3/3/4 
s 32
f 15/15/5 16/16/5 17/17/5 
f 17/17/5 18/18/5 15/15/5 
s 64
f 1/1/6 19/19/6 20/20/6 
f 20/20/6 2/2/6 1/1/6 
s 8
f 6/6/3 5/5/3 19/21/3 
f 19/21/3 14/22/3 6/6/3 
s 16
f 7/23/4 6/24/4 14/14/4 
f 14/14/4 13/13/4 7/23/4 
s 32
f 8/25/5 7/26/5 13/27/5 
f 13/27/5 20/28/5 8/25/5 
s 64
f 5/29/6 8/30/6 20/20/6 
f 20/20/6 19/19/6 5/29/6 
s off
f 1/1/7 4/4/7 21/31/7 
f 21/31/7 22/32/7 1/1/7 
f 4/4/4 14/14/4 23/33/4 
f 23/33/4 21/31/4 4/4/4 
f 14/22/8 19/21/8 24/34/8 
f 24/34/9 23/35/9 14/22/9 
f 19/19/6 1/1/6 22/32/6 
f 22/32/6 24/36/6 19/19/6 
f 3/3/10 2/2/10 25/37/10 
f 25/37/11 26/38/11 3/3/11 
f 2/2/6 20/20/6 27/39/6 
f 27/39/6 25/37/6 2/2/6 
f 20/28/12 13/27/12 28/40/12 
f 28/40/12 27/41/12 20/28/12 
f 13/13/4 3/3/4 26/38/4 
f 26/38/4 28/42/4 13/13/4 
f 22/32/13 21/31/13 9/9/13 
f 9/9/13 12/12/13 22/32/13 
f 21/31/4 23/33/4 10/43/4 
f 10/43/4 9/9/4 21/31/4 
f 23/35/14 24/34/14 11/11/14 
f 11/11/15 10/10/15 23/35/15 
f 24/36/6 22/32/6 12/12/6 
f 12/12/6 11/44/6 24/36/6 
f 26/38/16 25/37/16 15/15/16 
f 15/15/17 18/18/17 26/38/17 
f 25/37/6 27/39/6 16/45/6 
f 16/45/6 15/15/6 25/37/6 
f 27/41/18 28/40/18 17/17/18 
f 17/17/18 16/16/18 27/41/18 
f 28/42/4 26/38/4 18/18/4 
f 18/18/4 17/46/4 28/42/4 
s 8
f 29/47/19 30/48/20 31/49/20 
f 31/49/20 32/50/19 29/47/19 
f 33/51/21 34/52/22 35/53/22 
f 35/53/22 36/54/21 33/51/21 
f 34/52/22 37/55/23 38/56/23 
f 38/56/23 35/53/22 34/52/22 
f 37/55/23 39/57/24 40/58/25 
f 40/58/25 38/56/23 37/55/23 
f 39/59/24 41/60/26 42/61/26 
f 42/61/26 40/62/25 39/59/24 
f 41/60/26 29/47/19 32/50/19 
f 32/50/19 42/61/26 41/60/26 
s 1
f 39/63/4 37/64/4 34/52/4 
f 34/52/4 33/51/4 30/65/4 
f 34/52/4 30/65/4 29/66/4 
f 39/63/4 34/52/4 29/66/4 
f 41/67/4 39/63/4 29/66/4 
f 36/68/6 35/69/6 38/70/27 
f 38/70/27 40/71/27 42/72/27 
f 36/68/6 38/70/27 42/72/27 
f 31/49/6 36/68/6 42/72/27 
f 32/50/6 31/49/6 42/72/27 
s 8
f 43/73/19 44/74/20 45/75/20 
f 45/75/20 46/76/19 43/73/19 
f 47/77/21 48/78/22 49/79/22 
f 49/79/22 50/80/21 47/77/21 
f 48/78/22 51/81/23 52/82/23 
f 52/82/23 49/79/22 48/78/22 
f 51/81/23 53/83/24 54/84/25 
f 54/84/25 52/82/23 51/81/23 
f 53/85/24 55/86/26 56/87/26 
f 56/87/26 54/88/25 53/85/24 
f 55/86/26 43/73/19 46/76/19 
f 46/76/19 56/87/26 55/86/26 
s 1
f 53/89/4 51/90/4 48/78/4 
f 48/78/4 47/77/4 44/91/4 
f 48/78/4 44/91/4 43/92/4 
f 53/89/4 48/78/4 43/92/4 
f 55/93/4 53/89/4 43/92/4 
f 50/94/6 49/95/6 52/96/27 
f 52/96/27 54/97/27 56/98/27 
f 50/94/6 52/96/27 56/98/27 
f 45/75/6 50/94/6 56/98/27 
f 46/76/6 45/75/6 56/98/27 
s 8
f 57/99/19 58/100/20 59/101/20 
f 59/101/20 60/102/19 57/99/19 
f 61/103/21 62/104/22 63/105/22 
f 63/105/22 64/106/21 61/103/21 
f 62/104/22 65/107/23 66/108/23 
f 66/108/23 63/105/22 62/104/22 
f 65/107/23 67/109/24 68/110/25 
f 68/110/25 66/108/23 65/107/23 
f 67/111/24 69/112/26 70/113/26 
f 70/113/26 68/114/25 67/111/24 
f 69/112/26 57/99/19 60/102/19 
f 60/102/19 70/113/26 69/112/26 
s 1
f 67/115/4 65/116/4 62/104/4 
f 62/104/4 61/103/4 58/117/4 
f 62/104/4 58/117/4 57/118/4 
f 67/115/4 62/104/4 57/118/4 
f 69/119/4 67/115/4 57/118/4 
f 64/120/6 63/121/6 66/122/27 
f 66/122/27 68/123/27 70/124/27 
f 64/120/6 66/122/27 70/124/27 
f 59/101/6 64/120/6 70/124/27 
f 60/102/6 59/101/6 70/124/27 
s 8
f 71/125/19 72/126/20 73/127/20 
f 73/127/20 74/128/19 71/125/19 
f 75/129/21 76/130/22 77/131/22 
f 77/131/22 78/132/21 75/129/21 
f 76/130/22 79/133/23 80/134/23 
f 80/134/23 77/131/22 76/130/22 
f 79/133/23 81/135/24 82/136/25 
f 82/136/25 80/134/23 79/133/23 
f 81/137/24 83/138/26 84/139/26 
f 84/139/26 82/140/25 81/137/24 
f 83/138/26 71/125/19 74/128/19 
f 74/128/19 84/139/26 83/138/26 
s 1
f 81/141/4 79/142/4 76/130/4 
f 76/130/4 75/129/4 72/143/4 
f 76/130/4 72/143/4 71/144/4 
f 81/141/4 76/130/4 71/144/4 
f 83/145/4 81/141/4 71/144/4 
f 78/146/6 77/147/6 80/148/27 
f 80/148/27 82/149/27 84/150/27 
f 78/146/6 80/148/27 84/150/27 
f 73/127/6 78/146/6 84/150/27 
f 74/128/6 73/127/6 84/150/27 
# 140 faces

#
# object FluorescentLight02
#

v  0.4900 0.2562 0.0562
v  0.4900 0.2734 0.0437
v  -0.4900 0.2734 0.0437
v  -0.4900 0.2562 0.0562
v  0.4900 0.2668 0.0236
v  -0.4900 0.2668 0.0236
v  0.4900 0.2457 0.0236
v  -0.4900 0.2457 0.0236
v  0.4900 0.2391 0.0437
v  -0.4900 0.2391 0.0437
# 10 vertices

vn -0.0000 0.0000 1.0000
vn -0.0000 0.9511 0.3090
vn -0.0000 -0.0000 1.0000
vn 0.0000 0.5878 -0.8090
vn 0.0000 -0.5878 -0.8090
vn -0.0000 -0.9511 0.3090
# 6 vertex normals

vt 0.0105 0.0505 0.0000
vt 0.0105 0.0293 0.0000
vt 0.9939 0.0291 0.0000
vt 0.9939 0.0503 0.0000
vt 0.0105 0.0080 1.0000
vt 0.9939 0.0078 0.0000
vt 0.0105 0.1142 1.0000
vt 0.0105 0.0930 0.0000
vt 0.9939 0.0928 0.0000
vt 0.9939 0.1140 0.0000
vt 0.0105 0.0717 0.0000
vt 0.9939 0.0715 0.0000
# 12 texture coords

g FluorescentLight02
usemtl 01___Default
s 8
f 85/151/28 86/152/29 87/153/29 
f 87/153/29 88/154/30 85/151/28 
f 86/152/29 89/155/31 90/156/31 
f 90/156/31 87/153/29 86/152/29 
f 89/157/31 91/158/32 92/159/32 
f 92/159/32 90/160/31 89/157/31 
f 91/158/32 93/161/33 94/162/33 
f 94/162/33 92/159/32 91/158/32 
f 93/161/33 85/151/28 88/154/30 
f 88/154/30 94/162/33 93/161/33 
# 10 faces

#
# object FluorescentLight01
#

v  0.4900 0.2562 -0.0190
v  0.4900 0.2734 -0.0314
v  -0.4900 0.2734 -0.0314
v  -0.4900 0.2562 -0.0190
v  0.4900 0.2668 -0.0515
v  -0.4900 0.2668 -0.0515
v  0.4900 0.2457 -0.0515
v  -0.4900 0.2457 -0.0515
v  0.4900 0.2391 -0.0314
v  -0.4900 0.2391 -0.0314
# 10 vertices

vn -0.0000 0.0000 1.0000
vn -0.0000 0.9511 0.3090
vn -0.0000 -0.0000 1.0000
vn 0.0000 0.5878 -0.8090
vn 0.0000 -0.5878 -0.8090
vn -0.0000 -0.9511 0.3090
# 6 vertex normals

vt 0.0088 0.0496 0.0000
vt 0.0088 0.0284 0.0000
vt 0.9922 0.0282 0.0000
vt 0.9922 0.0494 0.0000
vt 0.0088 0.0071 1.0000
vt 0.9922 0.0069 0.0000
vt 0.0088 0.1133 1.0000
vt 0.0088 0.0921 0.0000
vt 0.9922 0.0919 0.0000
vt 0.9922 0.1131 0.0000
vt 0.0088 0.0708 0.0000
vt 0.9922 0.0706 0.0000
# 12 texture coords

g FluorescentLight01
usemtl 01___Default
s 8
f 95/163/34 96/164/35 97/165/35 
f 97/165/35 98/166/36 95/163/34 
f 96/164/35 99/167/37 100/168/37 
f 100/168/37 97/165/35 96/164/35 
f 99/169/37 101/170/38 102/171/38 
f 102/171/38 100/172/37 99/169/37 
f 101/170/38 103/173/39 104/174/39 
f 104/174/39 102/171/38 101/170/38 
f 103/173/39 95/163/34 98/166/36 
f 98/166/36 104/174/39 103/173/39 
# 10 faces

#
# object Cord01
#

v  0.3654 0.3967 -0.0000
v  0.3629 0.3967 -0.0043
v  0.3629 1.3967 -0.0043
v  0.3654 1.3967 -0.0000
v  0.3579 0.3967 -0.0043
v  0.3579 1.3967 -0.0043
v  0.3554 0.3967 -0.0000
v  0.3554 1.3967 -0.0000
v  0.3579 0.3967 0.0043
v  0.3579 1.3967 0.0043
v  0.3629 0.3967 0.0043
v  0.3629 1.3967 0.0043
v  0.3734 0.3633 -0.0000
v  0.3669 0.3633 -0.0113
v  0.3669 0.4233 -0.0113
v  0.3734 0.4233 -0.0000
v  0.3539 0.3633 -0.0113
v  0.3539 0.4233 -0.0113
v  0.3474 0.3633 -0.0000
v  0.3474 0.4233 -0.0000
v  0.3539 0.3633 0.0113
v  0.3539 0.4233 0.0113
v  0.3669 0.3633 0.0113
v  0.3669 0.4233 0.0113
# 24 vertices

vn 1.0000 0.0000 0.0000
vn 0.5000 0.0000 -0.8660
vn 1.0000 0.0000 -0.0000
vn -0.5000 0.0000 -0.8660
vn -1.0000 0.0000 0.0000
vn -0.5000 0.0000 0.8660
vn 0.5000 0.0000 0.8660
vn 0.0000 1.0000 -0.0000
# 8 vertex normals

vt 0.8290 0.1340 0.2107
vt 0.8598 0.1340 0.2085
vt 0.8598 0.9930 0.2085
vt 0.8290 0.9930 0.2107
vt 0.8953 0.1340 0.1927
vt 0.8953 0.9930 0.1927
vt 0.9302 0.1340 0.2107
vt 0.9302 0.9930 0.2107
vt 0.9610 0.1340 0.2085
vt 0.9610 0.9930 0.2085
vt 0.9965 0.1340 0.1927
vt 0.9965 0.9930 0.1927
vt 0.7942 0.1340 0.1927
vt 0.7942 0.9930 0.1927
vt 0.5208 0.2209 0.0000
vt 0.4851 0.2209 0.0000
vt 0.4673 0.1891 0.0000
vt 0.4851 0.1572 0.0000
vt 0.5208 0.1572 0.0000
vt 0.5386 0.1891 0.0000
vt 0.7050 0.1381 0.0000
vt 0.7391 0.1381 0.0000
vt 0.7391 0.2996 0.0000
vt 0.7050 0.2997 0.0000
vt 0.7732 0.1381 0.0000
vt 0.7732 0.2996 0.0000
vt 0.5686 0.1382 0.0000
vt 0.6027 0.1381 0.0000
vt 0.6027 0.2997 0.0000
vt 0.5686 0.2997 0.0000
vt 0.6368 0.1381 0.0000
vt 0.6368 0.2997 0.0000
vt 0.6709 0.1381 0.0000
vt 0.6709 0.2997 0.0000
vt 0.5516 0.3300 0.0000
vt 0.6198 0.3300 0.0000
vt 0.6028 0.3603 0.0000
vt 0.5687 0.3603 0.0000
# 38 texture coords

g Cord01
usemtl 01___Default
s 8
f 105/175/40 106/176/41 107/177/41 
f 107/177/41 108/178/42 105/175/40 
f 106/176/41 109/179/43 110/180/43 
f 110/180/43 107/177/41 106/176/41 
f 109/179/43 111/181/44 112/182/44 
f 112/182/44 110/180/43 109/179/43 
f 111/181/44 113/183/45 114/184/45 
f 114/184/45 112/182/44 111/181/44 
f 113/183/45 115/185/46 116/186/46 
f 116/186/46 114/184/45 113/183/45 
f 115/187/46 105/175/40 108/178/42 
f 108/178/42 116/188/46 115/187/46 
s 1
f 107/189/47 110/190/47 112/191/47 
f 112/191/47 114/192/47 116/193/47 
f 107/189/47 112/191/47 116/193/47 
f 108/194/47 107/189/47 116/193/47 
s 8
f 117/195/42 118/196/41 119/197/41 
f 119/197/41 120/198/42 117/195/42 
f 118/196/41 121/199/43 122/200/43 
f 122/200/43 119/197/41 118/196/41 
f 121/201/43 123/202/44 124/203/44 
f 124/203/44 122/204/43 121/201/43 
f 123/202/44 125/205/45 126/206/45 
f 126/206/45 124/203/44 123/202/44 
f 125/205/45 127/207/46 128/208/46 
f 128/208/46 126/206/45 125/205/45 
f 127/207/46 117/195/42 120/198/42 
f 120/198/42 128/208/46 127/207/46 
s 1
f 119/209/47 122/204/47 124/203/47 
f 124/203/47 126/210/47 128/211/47 
f 119/209/47 124/203/47 128/211/47 
f 120/212/47 119/209/47 128/211/47 
# 32 faces

#
# object Cord002
#

v  -0.3556 0.3967 -0.0000
v  -0.3581 0.3967 -0.0043
v  -0.3581 1.3967 -0.0043
v  -0.3556 1.3967 -0.0000
v  -0.3631 0.3967 -0.0043
v  -0.3631 1.3967 -0.0043
v  -0.3656 0.3967 -0.0000
v  -0.3656 1.3967 -0.0000
v  -0.3631 0.3967 0.0043
v  -0.3631 1.3967 0.0043
v  -0.3581 0.3967 0.0043
v  -0.3581 1.3967 0.0043
v  -0.3476 0.3633 -0.0000
v  -0.3541 0.3633 -0.0113
v  -0.3541 0.4233 -0.0113
v  -0.3476 0.4233 -0.0000
v  -0.3671 0.3633 -0.0113
v  -0.3671 0.4233 -0.0113
v  -0.3736 0.3633 -0.0000
v  -0.3736 0.4233 -0.0000
v  -0.3671 0.3633 0.0113
v  -0.3671 0.4233 0.0113
v  -0.3541 0.3633 0.0113
v  -0.3541 0.4233 0.0113
# 24 vertices

vn 1.0000 0.0000 0.0000
vn 0.5000 0.0000 -0.8660
vn 1.0000 0.0000 -0.0000
vn -0.5000 0.0000 -0.8660
vn -1.0000 0.0000 0.0000
vn -0.5000 0.0000 0.8660
vn 0.5000 0.0000 0.8660
vn 0.0000 1.0000 -0.0000
# 8 vertex normals

vt 0.9292 0.1355 9.1602
vt 0.9628 0.1355 9.1602
vt 0.9628 0.9926 9.1602
vt 0.9292 0.9926 9.1602
vt 0.9965 0.1355 9.1602
vt 0.9965 0.9926 9.1602
vt 0.7945 0.1355 9.1602
vt 0.8282 0.1355 9.1602
vt 0.8282 0.9926 9.1602
vt 0.7945 0.9926 9.1602
vt 0.8618 0.1355 9.1602
vt 0.8618 0.9926 9.1602
vt 0.8955 0.1355 9.1602
vt 0.8955 0.9926 9.1602
vt 0.5211 0.2203 0.0000
vt 0.4849 0.2204 0.0000
vt 0.4666 0.1891 0.1322
vt 0.4846 0.1576 0.0000
vt 0.5209 0.1575 0.0000
vt 0.5391 0.1888 0.1322
vt 0.7070 0.1391 0.0000
vt 0.7413 0.1391 0.5420
vt 0.7413 0.3008 0.5420
vt 0.7070 0.3008 0.0000
vt 0.7727 0.1391 0.0000
vt 0.7727 0.3008 0.0000
vt 0.5682 0.1391 0.0000
vt 0.6032 0.1391 0.5479
vt 0.6032 0.3008 0.5479
vt 0.5682 0.3008 0.0000
vt 0.6382 0.1391 0.0000
vt 0.6382 0.3008 0.0000
vt 0.6733 0.1391 0.0000
vt 0.6733 0.3008 0.0000
vt 0.6729 0.1391 0.0000
vt 0.6729 0.3008 0.0000
vt 0.5506 0.3311 0.0000
vt 0.6207 0.3311 0.0000
vt 0.6032 0.3615 0.0000
vt 0.5682 0.3615 0.0000
# 40 texture coords

g Cord002
usemtl 01___Default
s 8
f 129/213/48 130/214/49 131/215/49 
f 131/215/49 132/216/50 129/213/48 
f 130/214/49 133/217/51 134/218/51 
f 134/218/51 131/215/49 130/214/49 
f 133/219/51 135/220/52 136/221/52 
f 136/221/52 134/222/51 133/219/51 
f 135/220/52 137/223/53 138/224/53 
f 138/224/53 136/221/52 135/220/52 
f 137/223/53 139/225/54 140/226/54 
f 140/226/54 138/224/53 137/223/53 
f 139/225/54 129/213/48 132/216/50 
f 132/216/50 140/226/54 139/225/54 
s 1
f 131/227/55 134/228/55 136/229/55 
f 136/229/55 138/230/55 140/231/55 
f 131/227/55 136/229/55 140/231/55 
f 132/232/55 131/227/55 140/231/55 
s 8
f 141/233/50 142/234/49 143/235/49 
f 143/235/49 144/236/50 141/233/50 
f 142/234/49 145/237/51 146/238/51 
f 146/238/51 143/235/49 142/234/49 
f 145/239/51 147/240/52 148/241/52 
f 148/241/52 146/242/51 145/239/51 
f 147/240/52 149/243/53 150/244/53 
f 150/244/53 148/241/52 147/240/52 
f 149/243/53 151/245/54 152/246/54 
f 152/246/54 150/244/53 149/243/53 
f 151/247/54 141/233/50 144/236/50 
f 144/236/50 152/248/54 151/247/54 
s 1
f 143/249/55 146/242/55 148/241/55 
f 148/241/55 150/250/55 152/251/55 
f 143/249/55 148/241/55 152/251/55 
f 144/252/55 143/249/55 152/251/55 
# 32 faces

